<?xml version="1.0" standalone="no"?>
<!DOCTYPE svg PUBLIC "-//W3C//DTD SVG 20010904//EN"
 "http://www.w3.org/TR/2001/REC-SVG-20010904/DTD/svg10.dtd">
<svg version="1.0" xmlns="http://www.w3.org/2000/svg"
 width="961.000000pt" height="275.000000pt" viewBox="0 0 961.000000 275.000000"
 preserveAspectRatio="xMidYMid meet">

<g transform="translate(0.000000,275.000000) scale(0.100000,-0.100000)"
fill="#000000" stroke="none">
<path d="M3406 2157 c-31 -46 -74 -124 -97 -173 -40 -85 -169 -404 -184 -454
-4 -13 -19 -33 -34 -45 -14 -11 -68 -58 -119 -105 -175 -159 -193 -150 -116
52 19 50 33 93 31 95 -7 6 -65 -132 -81 -193 -16 -60 -10 -84 21 -84 23 0 109
66 196 149 42 41 77 72 77 69 0 -2 -11 -41 -24 -86 -39 -130 -64 -257 -76
-392 -13 -142 -8 -197 21 -234 23 -29 69 -36 69 -11 0 8 -8 15 -19 15 -36 0
-43 24 -42 142 1 325 162 802 411 1218 28 46 49 91 48 99 -7 34 -29 17 -82
-62z"/>
<path d="M4607 2120 c-32 -58 -48 -76 -105 -114 -209 -139 -422 -465 -422
-647 0 -38 14 -56 57 -74 l24 -10 -47 -50 c-75 -82 -111 -174 -93 -238 20 -71
113 -127 212 -127 48 0 177 32 243 61 121 54 234 147 315 263 66 94 91 163 92
257 1 100 -27 158 -101 213 l-53 40 60 60 c76 78 106 135 106 203 0 43 -5 57
-29 82 -34 35 -106 55 -177 49 -27 -3 -51 -3 -53 0 -3 2 1 20 9 39 8 20 15 42
15 49 0 29 -17 11 -53 -56z m216 -67 c16 -8 35 -30 43 -50 30 -70 -25 -166
-145 -253 -67 -49 -78 -76 -33 -85 101 -21 150 -64 173 -149 44 -164 -115
-412 -341 -530 -157 -83 -334 -111 -408 -66 -38 24 -72 75 -72 111 0 47 52
132 125 204 79 78 181 142 329 207 54 23 93 44 87 46 -16 5 -56 -11 -193 -79
-64 -32 -120 -55 -123 -49 -3 5 19 47 49 93 56 85 146 259 206 397 68 157 86
185 127 203 66 28 120 28 176 0z m-312 -125 c-171 -379 -315 -607 -384 -608
-26 0 -30 23 -18 92 19 109 124 302 226 418 66 76 165 160 186 160 16 0 15 -6
-10 -62z"/>
<path d="M5891 2097 c-100 -151 -163 -257 -236 -397 -44 -85 -86 -155 -92
-155 -7 0 -49 -27 -95 -61 -117 -86 -169 -120 -195 -128 -38 -12 -29 30 37
163 33 67 60 126 60 132 0 14 -29 11 -61 -8 -24 -14 -33 -15 -47 -5 -59 42
-117 34 -174 -25 -64 -66 -115 -205 -88 -238 26 -31 53 -16 152 85 54 55 102
100 106 100 5 0 16 15 25 34 15 33 51 55 65 41 4 -3 -2 -21 -12 -38 -89 -154
-117 -239 -86 -259 23 -15 125 47 280 169 l35 28 -32 -38 c-22 -25 -33 -48
-33 -68 0 -17 -27 -95 -60 -174 -64 -154 -70 -178 -42 -173 11 2 33 40 64 113
58 135 65 148 84 141 12 -4 12 -2 4 14 -8 15 -5 34 16 82 14 35 33 71 42 82
29 32 233 126 275 126 11 0 26 -8 34 -17 12 -16 13 -15 11 12 -3 27 -7 30 -39
33 -34 3 -57 -4 -187 -57 l-53 -21 6 22 c11 39 146 299 190 368 23 36 59 81
79 99 39 37 48 71 19 71 -10 0 -33 -23 -52 -53z m-650 -457 c10 -6 19 -17 19
-24 0 -7 -36 -54 -81 -104 -75 -85 -131 -132 -158 -132 -24 0 -9 57 35 127 45
72 86 113 134 132 32 13 28 13 51 1z"/>
<path d="M1383 2071 c-50 -36 -119 -129 -276 -367 -112 -171 -167 -260 -294
-479 -50 -84 -97 -133 -109 -113 -5 7 -11 110 -14 229 -4 195 -7 219 -24 238
-92 101 -242 -201 -325 -652 -10 -53 -15 -100 -10 -102 12 -8 12 -8 83 235 89
305 143 442 196 498 19 20 25 22 36 10 23 -23 34 -114 34 -285 0 -170 6 -203
40 -203 27 0 70 60 259 360 244 388 315 492 377 560 66 71 94 78 94 24 0 -35
-44 -250 -159 -774 -79 -360 -107 -521 -122 -712 -14 -166 -8 -222 23 -242 24
-15 34 0 15 22 -22 24 -22 86 -2 280 22 212 36 285 131 697 152 658 167 757
122 789 -29 21 -28 21 -75 -13z"/>
<path d="M2622 1973 c-17 -27 -45 -78 -63 -115 -36 -74 -41 -78 -114 -88 l-50
-7 52 -2 c28 0 54 -5 57 -9 5 -9 -97 -316 -114 -342 -5 -8 -21 -35 -34 -60
-72 -132 -221 -258 -250 -211 -3 5 1 31 9 57 28 93 19 134 -31 134 -38 0 -90
-24 -172 -78 -29 -19 -56 -32 -59 -28 -4 4 -1 35 6 69 8 34 16 72 19 85 8 38
-25 26 -38 -14 -7 -20 -24 -48 -39 -63 -15 -14 -20 -20 -11 -13 25 19 27 16
22 -38 -7 -72 11 -74 106 -12 42 28 98 59 124 69 68 25 77 12 48 -69 -36 -98
-10 -147 62 -119 37 14 153 125 190 182 17 27 33 48 35 46 1 -2 -2 -19 -7 -38
-43 -146 -64 -406 -37 -459 13 -25 67 -42 67 -21 0 6 -9 11 -19 11 -24 0 -28
12 -36 96 -8 86 14 239 56 389 29 101 126 372 149 415 12 22 32 25 250 45
l155 14 -187 -4 c-135 -3 -188 -1 -188 7 0 6 23 53 50 104 28 51 50 97 50 103
0 26 -30 7 -58 -36z"/>
<path d="M7371 1919 c-33 -20 -37 -29 -20 -46 8 -8 0 -26 -28 -65 -59 -79
-101 -149 -182 -295 -79 -146 -105 -177 -185 -223 -97 -55 -152 -138 -143
-217 6 -57 38 -97 103 -129 50 -25 62 -26 142 -21 216 13 475 146 658 340 189
198 255 393 173 509 -45 63 -143 88 -254 65 -92 -20 -162 -51 -262 -120 -46
-31 -83 -52 -83 -46 0 6 34 60 75 120 42 62 72 115 69 123 -9 24 -30 25 -63 5z
m450 -115 c57 -34 74 -67 74 -147 0 -62 -5 -82 -33 -140 -142 -288 -591 -577
-859 -553 -34 3 -76 12 -92 20 -106 55 -90 181 35 269 49 34 59 33 55 -5 -4
-42 19 -35 63 18 63 75 123 97 286 104 l135 7 -125 1 c-69 0 -151 -3 -182 -7
-32 -4 -58 -5 -58 -3 0 2 27 43 60 91 134 196 275 312 433 356 67 19 166 14
208 -11z"/>
<path d="M2323 1753 c15 -2 37 -2 50 0 12 2 0 4 -28 4 -27 0 -38 -2 -22 -4z"/>
<path d="M2100 1734 c-58 -8 -116 -19 -130 -24 -21 -8 -18 -9 15 -4 22 3 101
14 175 24 74 10 115 18 90 18 -25 0 -92 -6 -150 -14z"/>
<path d="M6231 1603 c-31 -11 -71 -43 -140 -112 -101 -102 -182 -153 -276
-178 l-50 -13 45 5 c57 7 172 62 228 110 l42 37 0 -30 c0 -42 28 -71 79 -83
55 -12 66 -4 13 10 -51 14 -66 32 -57 70 8 36 48 71 82 71 51 0 143 55 143 86
0 14 -39 44 -55 43 -5 0 -30 -8 -54 -16z m73 -36 c-6 -17 -50 -42 -89 -51
l-29 -7 19 22 c32 36 110 64 99 36z"/>
<path d="M2846 1564 c-26 -23 -30 -24 -52 -9 -13 8 -41 15 -63 15 -70 0 -133
-74 -167 -196 -19 -70 -13 -110 17 -119 27 -9 87 48 161 152 31 43 58 71 65
69 8 -4 13 4 13 20 0 14 12 37 26 51 25 24 28 25 39 10 12 -16 13 -16 18 2 10
39 -16 41 -57 5z m-65 -14 c10 -6 19 -16 19 -22 0 -15 -132 -198 -168 -232
-33 -31 -62 -30 -62 3 0 11 15 53 34 94 33 73 89 141 130 157 28 11 25 11 47
0z"/>
<path d="M1582 1429 c-110 -55 -170 -214 -99 -264 53 -37 192 -2 249 64 l23
26 -25 -21 c-41 -36 -127 -74 -165 -74 -53 0 -75 15 -75 51 0 48 17 67 85 100
58 27 105 71 105 96 0 12 -33 43 -46 43 -5 0 -28 -10 -52 -21z m54 -43 c-25
-40 -105 -74 -81 -36 10 17 87 71 93 65 3 -2 -3 -16 -12 -29z"/>
<path d="M6429 1433 c-13 -17 -13 -17 6 -3 11 8 22 16 24 17 2 2 0 3 -6 3 -6
0 -17 -8 -24 -17z"/>
<path d="M8044 1424 c-82 -42 -158 -158 -152 -231 7 -80 86 -72 172 17 45 47
51 50 80 43 17 -4 56 -8 87 -8 l56 0 -10 -38 c-12 -48 3 -87 34 -87 22 0 65
26 113 69 l29 26 -6 -31 c-3 -18 -9 -43 -12 -56 -9 -35 24 -73 56 -65 45 11
107 65 165 142 l56 75 35 -45 c41 -54 52 -59 18 -9 -14 20 -25 46 -25 58 -1
50 -18 50 -43 0 -47 -94 -157 -194 -212 -194 -22 0 -18 26 15 105 29 68 36 95
24 95 -4 0 -33 -25 -66 -55 -50 -47 -123 -95 -143 -95 -16 0 1 60 42 145 31
65 43 99 36 106 -13 13 -68 -51 -85 -98 -13 -36 -26 -39 -118 -34 -62 4 -70
13 -63 70 9 79 -29 123 -83 95z m45 -48 c13 -15 5 -66 -10 -66 -5 0 -16 11
-25 25 -13 20 -14 28 -4 40 15 19 24 19 39 1z m-36 -53 c25 -35 26 -38 10 -63
-40 -64 -109 -114 -140 -102 -31 11 -1 107 51 170 15 17 33 32 40 32 7 0 25
-17 39 -37z"/>
<path d="M6338 1380 c-9 -6 -40 -16 -70 -24 -29 -8 -44 -15 -32 -15 26 -1 112
28 120 40 7 11 3 11 -18 -1z"/>
<path d="M5628 1303 c6 -2 18 -2 25 0 6 3 1 5 -13 5 -14 0 -19 -2 -12 -5z"/>
<path d="M5693 1293 c9 -2 25 -2 35 0 9 3 1 5 -18 5 -19 0 -27 -2 -17 -5z"/>
<path d="M8882 1193 c-43 -55 -82 -137 -72 -152 9 -15 29 -13 144 18 95 25
154 27 162 6 4 -9 -9 -35 -30 -62 -57 -73 -60 -114 -11 -133 48 -18 183 42
289 130 30 25 55 52 56 60 0 8 -21 -6 -47 -31 -87 -84 -205 -149 -268 -149
-39 0 -39 22 -1 86 58 96 45 128 -49 125 -30 -1 -84 -11 -121 -22 -91 -28 -98
-18 -45 66 22 36 41 70 41 75 0 24 -21 16 -48 -17z"/>
</g>
</svg>
